<mxfile host="www.draw.io" modified="2019-11-05T09:54:10.926Z" agent="Mozilla/5.0 (Macintosh; Intel Mac OS X 10_14_6) AppleWebKit/605.1.15 (KHTML, like Gecko) Version/13.0.2 Safari/605.1.15" etag="3mQhaQzpXJSUJcElZJAE" version="12.2.0" type="github" pages="1">
  <diagram name="Page-1" id="2c0d36ab-eaac-3732-788b-9136903baeff">
    <mxGraphModel dx="2925.5" dy="1935.5" grid="1" gridSize="10" guides="1" tooltips="1" connect="1" arrows="1" fold="1" page="1" pageScale="1.5" pageWidth="1169" pageHeight="827" background="#ffffff" math="0" shadow="0">
      <root>
        <mxCell id="0"/>
        <mxCell id="1" parent="0"/>
        <mxCell id="123" value="" style="fillColor=#AE4132;strokeColor=none;opacity=30;" parent="1" vertex="1">
          <mxGeometry x="1207" y="533" width="323" height="307" as="geometry"/>
        </mxCell>
        <mxCell id="122" value="" style="fillColor=#10739E;strokeColor=none;opacity=30;" parent="1" vertex="1">
          <mxGeometry x="40" y="326" width="880" height="100" as="geometry"/>
        </mxCell>
        <mxCell id="121" value="" style="fillColor=#F2931E;strokeColor=none;opacity=30;" parent="1" vertex="1">
          <mxGeometry x="1557" y="533" width="150" height="307" as="geometry"/>
        </mxCell>
        <mxCell id="120" value="" style="fillColor=#fff2cc;strokeColor=#d6b656;opacity=30;" parent="1" vertex="1">
          <mxGeometry x="967" y="441" width="150" height="400" as="geometry"/>
        </mxCell>
        <mxCell id="118" value="" style="fillColor=#F2931E;strokeColor=none;opacity=30;" parent="1" vertex="1">
          <mxGeometry x="40" y="536" width="153" height="614" as="geometry"/>
        </mxCell>
        <mxCell id="117" value="" style="fillColor=#F2931E;strokeColor=none;opacity=30;" parent="1" vertex="1">
          <mxGeometry x="410" y="536" width="320" height="424" as="geometry"/>
        </mxCell>
        <mxCell id="114" value="" style="fillColor=#10739E;strokeColor=none;opacity=30;" parent="1" vertex="1">
          <mxGeometry x="757" y="540" width="163" height="300" as="geometry"/>
        </mxCell>
        <mxCell id="111" value="" style="fillColor=#D9EAD3;strokeColor=none" parent="1" vertex="1">
          <mxGeometry x="1741" y="533" width="338" height="704" as="geometry"/>
        </mxCell>
        <mxCell id="110" value="" style="fillColor=#12AAB5;strokeColor=none;opacity=30;" parent="1" vertex="1">
          <mxGeometry x="1207" y="440" width="500" height="80" as="geometry"/>
        </mxCell>
        <mxCell id="109" value="" style="fillColor=#12AAB5;strokeColor=none;opacity=30;" parent="1" vertex="1">
          <mxGeometry x="42" y="442" width="880" height="80" as="geometry"/>
        </mxCell>
        <mxCell id="108" value="" style="fillColor=#12AAB5;strokeColor=none;opacity=30;" parent="1" vertex="1">
          <mxGeometry x="1739" y="440" width="342" height="80" as="geometry"/>
        </mxCell>
        <mxCell id="2" value="纳什研发团队-系统服务" style="rounded=1;fillColor=#23445D;gradientColor=none;strokeColor=none;fontColor=#FFFFFF;fontStyle=1;fontFamily=Tahoma;fontSize=14" parent="1" vertex="1">
          <mxGeometry x="947" y="100.5" width="190" height="80" as="geometry"/>
        </mxCell>
        <mxCell id="4" value="前端服务" style="rounded=1;fillColor=#23445D;gradientColor=none;strokeColor=none;fontColor=#FFFFFF;fontStyle=1;fontFamily=Tahoma;fontSize=14" parent="1" vertex="1">
          <mxGeometry x="1361.9999999999998" y="336" width="190" height="80" as="geometry"/>
        </mxCell>
        <mxCell id="9" value="" style="edgeStyle=elbowEdgeStyle;elbow=vertical;strokeWidth=2;rounded=0" parent="1" source="2" target="4" edge="1">
          <mxGeometry x="337" y="215.5" width="100" height="100" as="geometry">
            <mxPoint x="337" y="315.5" as="sourcePoint"/>
            <mxPoint x="437" y="215.5" as="targetPoint"/>
          </mxGeometry>
        </mxCell>
        <mxCell id="10" value="内部服务" style="rounded=1;fillColor=#23445D;gradientColor=none;strokeColor=none;fontColor=#FFFFFF;fontStyle=1;fontFamily=Tahoma;fontSize=14" parent="1" vertex="1">
          <mxGeometry x="947" y="335.5" width="190" height="80" as="geometry"/>
        </mxCell>
        <mxCell id="12" value="企业服务" style="rounded=1;fillColor=#23445D;gradientColor=none;strokeColor=none;fontColor=#FFFFFF;fontStyle=1;fontFamily=Tahoma;fontSize=14" parent="1" vertex="1">
          <mxGeometry x="561.9999999999999" y="335.5" width="190" height="80" as="geometry"/>
        </mxCell>
        <mxCell id="6_NMdj25JBLofWKGqe_U-141" style="edgeStyle=orthogonalEdgeStyle;rounded=0;orthogonalLoop=1;jettySize=auto;html=1;entryX=0.5;entryY=0;entryDx=0;entryDy=0;strokeWidth=2;" parent="1" source="13" target="6_NMdj25JBLofWKGqe_U-138" edge="1">
          <mxGeometry relative="1" as="geometry"/>
        </mxCell>
        <mxCell id="6_NMdj25JBLofWKGqe_U-142" style="edgeStyle=orthogonalEdgeStyle;rounded=0;orthogonalLoop=1;jettySize=auto;html=1;entryX=0.5;entryY=0;entryDx=0;entryDy=0;strokeWidth=2;" parent="1" source="13" target="6_NMdj25JBLofWKGqe_U-139" edge="1">
          <mxGeometry relative="1" as="geometry"/>
        </mxCell>
        <mxCell id="13" value="核心服务" style="rounded=1;fillColor=#23445D;gradientColor=none;strokeColor=none;fontColor=#FFFFFF;fontStyle=1;fontFamily=Tahoma;fontSize=14" parent="1" vertex="1">
          <mxGeometry x="107" y="335.5" width="190" height="80" as="geometry"/>
        </mxCell>
        <mxCell id="16" value="CRM" style="rounded=1;fillColor=#23445D;gradientColor=none;strokeColor=none;fontColor=#FFFFFF;fontStyle=1;fontFamily=Tahoma;fontSize=14" parent="1" vertex="1">
          <mxGeometry x="50" y="546" width="130" height="60" as="geometry"/>
        </mxCell>
        <mxCell id="17" value="纳米系统&#xa;Studio业务系统" style="rounded=1;fillColor=#23445D;gradientColor=none;strokeColor=none;fontColor=#FFFFFF;fontStyle=1;fontFamily=Tahoma;fontSize=14" parent="1" vertex="1">
          <mxGeometry x="51.5" y="635.5" width="130" height="60" as="geometry"/>
        </mxCell>
        <mxCell id="18" value="合同系统" style="rounded=1;fillColor=#23445D;gradientColor=none;strokeColor=none;fontColor=#FFFFFF;fontStyle=1;fontFamily=Tahoma;fontSize=14" parent="1" vertex="1">
          <mxGeometry x="51.5" y="725.5" width="130" height="60" as="geometry"/>
        </mxCell>
        <mxCell id="19" value="工单系统" style="rounded=1;fillColor=#23445D;gradientColor=none;strokeColor=none;fontColor=#FFFFFF;fontStyle=1;fontFamily=Tahoma;fontSize=14" parent="1" vertex="1">
          <mxGeometry x="51.5" y="810.5" width="130" height="60" as="geometry"/>
        </mxCell>
        <mxCell id="20" value="Space 业务系统" style="rounded=1;fillColor=#23445D;gradientColor=none;strokeColor=none;fontColor=#FFFFFF;fontStyle=1;fontFamily=Tahoma;fontSize=14" parent="1" vertex="1">
          <mxGeometry x="51.5" y="890" width="130" height="60" as="geometry"/>
        </mxCell>
        <mxCell id="25" value="业务服务" style="rounded=1;fillColor=#23445D;gradientColor=none;strokeColor=none;fontColor=#FFFFFF;fontStyle=1;fontFamily=Tahoma;fontSize=14" parent="1" vertex="1">
          <mxGeometry x="417" y="455.5" width="130" height="60" as="geometry"/>
        </mxCell>
        <mxCell id="26" value="CMS" style="rounded=1;fillColor=#23445D;gradientColor=none;strokeColor=none;fontColor=#FFFFFF;fontStyle=1;fontFamily=Tahoma;fontSize=14" parent="1" vertex="1">
          <mxGeometry x="417" y="545.5" width="130" height="60" as="geometry"/>
        </mxCell>
        <mxCell id="27" value="SSO" style="rounded=1;fillColor=#23445D;gradientColor=none;strokeColor=none;fontColor=#FFFFFF;fontStyle=1;fontFamily=Tahoma;fontSize=14" parent="1" vertex="1">
          <mxGeometry x="417" y="634.5" width="130" height="60" as="geometry"/>
        </mxCell>
        <mxCell id="28" value="支付网关" style="rounded=1;fillColor=#23445D;gradientColor=none;strokeColor=none;fontColor=#FFFFFF;fontStyle=1;fontFamily=Tahoma;fontSize=14" parent="1" vertex="1">
          <mxGeometry x="417" y="723" width="130" height="60" as="geometry"/>
        </mxCell>
        <mxCell id="29" value="营销服务" style="rounded=1;fillColor=#23445D;gradientColor=none;strokeColor=none;fontColor=#FFFFFF;fontStyle=1;fontFamily=Tahoma;fontSize=14" parent="1" vertex="1">
          <mxGeometry x="592" y="455.5" width="130" height="60" as="geometry"/>
        </mxCell>
        <mxCell id="30" value="纳什官网" style="rounded=1;fillColor=#23445D;gradientColor=none;strokeColor=none;fontColor=#FFFFFF;fontStyle=1;fontFamily=Tahoma;fontSize=14" parent="1" vertex="1">
          <mxGeometry x="592" y="545.5" width="130" height="60" as="geometry"/>
        </mxCell>
        <mxCell id="31" value="APP" style="rounded=1;fillColor=#23445D;gradientColor=none;strokeColor=none;fontColor=#FFFFFF;fontStyle=1;fontFamily=Tahoma;fontSize=14" parent="1" vertex="1">
          <mxGeometry x="592" y="635.5" width="130" height="60" as="geometry"/>
        </mxCell>
        <mxCell id="32" value="……" style="rounded=1;fillColor=#23445D;gradientColor=none;strokeColor=none;fontColor=#FFFFFF;fontStyle=1;fontFamily=Tahoma;fontSize=14" parent="1" vertex="1">
          <mxGeometry x="592" y="723" width="130" height="60" as="geometry"/>
        </mxCell>
        <mxCell id="33" value="基础服务" style="rounded=1;fillColor=#23445D;gradientColor=none;strokeColor=none;fontColor=#FFFFFF;fontStyle=1;fontFamily=Tahoma;fontSize=14" parent="1" vertex="1">
          <mxGeometry x="767" y="455.5" width="130" height="60" as="geometry"/>
        </mxCell>
        <mxCell id="34" value="统一配置中心" style="rounded=1;fillColor=#23445D;gradientColor=none;strokeColor=none;fontColor=#FFFFFF;fontStyle=1;fontFamily=Tahoma;fontSize=14" parent="1" vertex="1">
          <mxGeometry x="767" y="545.5" width="130" height="60" as="geometry"/>
        </mxCell>
        <mxCell id="35" value="短链接服务" style="rounded=1;fillColor=#23445D;gradientColor=none;strokeColor=none;fontColor=#FFFFFF;fontStyle=1;fontFamily=Tahoma;fontSize=14" parent="1" vertex="1">
          <mxGeometry x="767" y="635.5" width="130" height="60" as="geometry"/>
        </mxCell>
        <mxCell id="41" value="OA" style="rounded=1;fillColor=#23445D;gradientColor=none;strokeColor=none;fontColor=#FFFFFF;fontStyle=1;fontFamily=Tahoma;fontSize=14" parent="1" vertex="1">
          <mxGeometry x="977" y="455.5" width="130" height="60" as="geometry"/>
        </mxCell>
        <mxCell id="42" value="金蝶" style="rounded=1;fillColor=#23445D;gradientColor=none;strokeColor=none;fontColor=#FFFFFF;fontStyle=1;fontFamily=Tahoma;fontSize=14" parent="1" vertex="1">
          <mxGeometry x="977" y="545.5" width="130" height="60" as="geometry"/>
        </mxCell>
        <mxCell id="43" value="北森" style="rounded=1;fillColor=#23445D;gradientColor=none;strokeColor=none;fontColor=#FFFFFF;fontStyle=1;fontFamily=Tahoma;fontSize=14" parent="1" vertex="1">
          <mxGeometry x="977" y="635.5" width="130" height="60" as="geometry"/>
        </mxCell>
        <mxCell id="44" value="业务服务" style="rounded=1;fillColor=#23445D;gradientColor=none;strokeColor=none;fontColor=#FFFFFF;fontStyle=1;fontFamily=Tahoma;fontSize=14" parent="1" vertex="1">
          <mxGeometry x="1217" y="455.50000000000006" width="130" height="60" as="geometry"/>
        </mxCell>
        <mxCell id="45" value="业务PC端" style="rounded=1;fillColor=#23445D;gradientColor=none;strokeColor=none;fontColor=#FFFFFF;fontStyle=1;fontFamily=Tahoma;fontSize=14" parent="1" vertex="1">
          <mxGeometry x="1217" y="545.5" width="130" height="60" as="geometry"/>
        </mxCell>
        <mxCell id="46" value="小程序" style="rounded=1;fillColor=#23445D;gradientColor=none;strokeColor=none;fontColor=#FFFFFF;fontStyle=1;fontFamily=Tahoma;fontSize=14" parent="1" vertex="1">
          <mxGeometry x="1217" y="635.5" width="130" height="60" as="geometry"/>
        </mxCell>
        <mxCell id="47" value="……" style="rounded=1;fillColor=#23445D;gradientColor=none;strokeColor=none;fontColor=#FFFFFF;fontStyle=1;fontFamily=Tahoma;fontSize=14" parent="1" vertex="1">
          <mxGeometry x="1217" y="725.5000000000001" width="130" height="60" as="geometry"/>
        </mxCell>
        <mxCell id="48" value="营销服务" style="rounded=1;fillColor=#23445D;gradientColor=none;strokeColor=none;fontColor=#FFFFFF;fontStyle=1;fontFamily=Tahoma;fontSize=14" parent="1" vertex="1">
          <mxGeometry x="1392" y="455.50000000000006" width="130" height="60" as="geometry"/>
        </mxCell>
        <mxCell id="49" value="纳什官网/APP" style="rounded=1;fillColor=#23445D;gradientColor=none;strokeColor=none;fontColor=#FFFFFF;fontStyle=1;fontFamily=Tahoma;fontSize=14" parent="1" vertex="1">
          <mxGeometry x="1392" y="545.5" width="130" height="60" as="geometry"/>
        </mxCell>
        <mxCell id="50" value="智能硬件" style="rounded=1;fillColor=#23445D;gradientColor=none;strokeColor=none;fontColor=#FFFFFF;fontStyle=1;fontFamily=Tahoma;fontSize=14" parent="1" vertex="1">
          <mxGeometry x="1392" y="635.5" width="130" height="60" as="geometry"/>
        </mxCell>
        <mxCell id="51" value="营销/推广/活动" style="rounded=1;fillColor=#23445D;gradientColor=none;strokeColor=none;fontColor=#FFFFFF;fontStyle=1;fontFamily=Tahoma;fontSize=14" parent="1" vertex="1">
          <mxGeometry x="1392" y="725.5000000000001" width="130" height="60" as="geometry"/>
        </mxCell>
        <mxCell id="52" value="基础服务" style="rounded=1;fillColor=#23445D;gradientColor=none;strokeColor=none;fontColor=#FFFFFF;fontStyle=1;fontFamily=Tahoma;fontSize=14" parent="1" vertex="1">
          <mxGeometry x="1567" y="455.50000000000006" width="130" height="60" as="geometry"/>
        </mxCell>
        <mxCell id="53" value="前端统一架构" style="rounded=1;fillColor=#23445D;gradientColor=none;strokeColor=none;fontColor=#FFFFFF;fontStyle=1;fontFamily=Tahoma;fontSize=14" parent="1" vertex="1">
          <mxGeometry x="1567" y="545.5" width="130" height="60" as="geometry"/>
        </mxCell>
        <mxCell id="54" value="用户统一认证" style="rounded=1;fillColor=#23445D;gradientColor=none;strokeColor=none;fontColor=#FFFFFF;fontStyle=1;fontFamily=Tahoma;fontSize=14" parent="1" vertex="1">
          <mxGeometry x="1567" y="635.5" width="130" height="60" as="geometry"/>
        </mxCell>
        <mxCell id="55" value="……" style="rounded=1;fillColor=#23445D;gradientColor=none;strokeColor=none;fontColor=#FFFFFF;fontStyle=1;fontFamily=Tahoma;fontSize=14" parent="1" vertex="1">
          <mxGeometry x="1567" y="725.5000000000001" width="130" height="60" as="geometry"/>
        </mxCell>
        <mxCell id="59" value="" style="edgeStyle=elbowEdgeStyle;elbow=vertical;strokeWidth=2;rounded=0" parent="1" source="2" target="12" edge="1">
          <mxGeometry x="347" y="225.5" width="100" height="100" as="geometry">
            <mxPoint x="861.9999999999999" y="275.5" as="sourcePoint"/>
            <mxPoint x="1466.9999999999998" y="345.5" as="targetPoint"/>
          </mxGeometry>
        </mxCell>
        <mxCell id="61" value="" style="edgeStyle=elbowEdgeStyle;elbow=vertical;strokeWidth=2;rounded=0" parent="1" source="2" target="13" edge="1">
          <mxGeometry x="-23" y="135.5" width="100" height="100" as="geometry">
            <mxPoint x="-23" y="235.5" as="sourcePoint"/>
            <mxPoint x="77" y="135.5" as="targetPoint"/>
          </mxGeometry>
        </mxCell>
        <mxCell id="69" value="" style="edgeStyle=elbowEdgeStyle;elbow=horizontal;strokeWidth=2;rounded=0;entryX=0;entryY=0.5;entryDx=0;entryDy=0;" parent="1" target="20" edge="1">
          <mxGeometry x="-194" y="129" width="100" height="100" as="geometry">
            <mxPoint x="50" y="480" as="sourcePoint"/>
            <mxPoint x="9.5" y="938" as="targetPoint"/>
            <Array as="points">
              <mxPoint x="31" y="659"/>
            </Array>
          </mxGeometry>
        </mxCell>
        <mxCell id="70" value="" style="edgeStyle=elbowEdgeStyle;elbow=horizontal;strokeWidth=2;rounded=0" parent="1" source="25" target="26" edge="1">
          <mxGeometry x="-23" y="135.5" width="100" height="100" as="geometry">
            <mxPoint x="-23" y="235.5" as="sourcePoint"/>
            <mxPoint x="77" y="135.5" as="targetPoint"/>
            <Array as="points">
              <mxPoint x="397" y="535.5"/>
            </Array>
          </mxGeometry>
        </mxCell>
        <mxCell id="71" value="" style="edgeStyle=elbowEdgeStyle;elbow=horizontal;strokeWidth=2;rounded=0" parent="1" source="25" target="27" edge="1">
          <mxGeometry x="-23" y="135.5" width="100" height="100" as="geometry">
            <mxPoint x="-23" y="235.5" as="sourcePoint"/>
            <mxPoint x="77" y="135.5" as="targetPoint"/>
            <Array as="points">
              <mxPoint x="397" y="575.5"/>
            </Array>
          </mxGeometry>
        </mxCell>
        <mxCell id="72" value="" style="edgeStyle=elbowEdgeStyle;elbow=horizontal;strokeWidth=2;rounded=0;entryX=0;entryY=0.5;entryDx=0;entryDy=0;" parent="1" source="25" target="6_NMdj25JBLofWKGqe_U-133" edge="1">
          <mxGeometry x="-23" y="135.5" width="100" height="100" as="geometry">
            <mxPoint x="-23" y="235.5" as="sourcePoint"/>
            <mxPoint x="77" y="135.5" as="targetPoint"/>
            <Array as="points">
              <mxPoint x="397" y="615.5"/>
            </Array>
          </mxGeometry>
        </mxCell>
        <mxCell id="73" value="" style="edgeStyle=elbowEdgeStyle;elbow=horizontal;strokeWidth=2;rounded=0" parent="1" source="29" target="30" edge="1">
          <mxGeometry x="-23" y="135.5" width="100" height="100" as="geometry">
            <mxPoint x="-23" y="235.5" as="sourcePoint"/>
            <mxPoint x="77" y="135.5" as="targetPoint"/>
            <Array as="points">
              <mxPoint x="567" y="535.5"/>
            </Array>
          </mxGeometry>
        </mxCell>
        <mxCell id="74" value="" style="edgeStyle=elbowEdgeStyle;elbow=horizontal;strokeWidth=2;rounded=0" parent="1" source="29" target="31" edge="1">
          <mxGeometry x="-23" y="135.5" width="100" height="100" as="geometry">
            <mxPoint x="-23" y="235.5" as="sourcePoint"/>
            <mxPoint x="77" y="135.5" as="targetPoint"/>
            <Array as="points">
              <mxPoint x="567" y="575.5"/>
            </Array>
          </mxGeometry>
        </mxCell>
        <mxCell id="75" value="" style="edgeStyle=elbowEdgeStyle;elbow=horizontal;strokeWidth=2;rounded=0" parent="1" source="29" target="32" edge="1">
          <mxGeometry x="-23" y="135.5" width="100" height="100" as="geometry">
            <mxPoint x="-23" y="235.5" as="sourcePoint"/>
            <mxPoint x="77" y="135.5" as="targetPoint"/>
            <Array as="points">
              <mxPoint x="567" y="615.5"/>
            </Array>
          </mxGeometry>
        </mxCell>
        <mxCell id="76" value="" style="edgeStyle=elbowEdgeStyle;elbow=horizontal;strokeWidth=2;rounded=0" parent="1" source="33" target="34" edge="1">
          <mxGeometry x="-23" y="135.5" width="100" height="100" as="geometry">
            <mxPoint x="-23" y="235.5" as="sourcePoint"/>
            <mxPoint x="77" y="135.5" as="targetPoint"/>
            <Array as="points">
              <mxPoint x="747" y="535.5"/>
            </Array>
          </mxGeometry>
        </mxCell>
        <mxCell id="77" value="" style="edgeStyle=elbowEdgeStyle;elbow=horizontal;strokeWidth=2;rounded=0" parent="1" source="33" target="35" edge="1">
          <mxGeometry x="-23" y="135.5" width="100" height="100" as="geometry">
            <mxPoint x="-23" y="235.5" as="sourcePoint"/>
            <mxPoint x="77" y="135.5" as="targetPoint"/>
            <Array as="points">
              <mxPoint x="747" y="575.5"/>
            </Array>
          </mxGeometry>
        </mxCell>
        <mxCell id="82" value="" style="edgeStyle=elbowEdgeStyle;elbow=horizontal;strokeWidth=2;rounded=0" parent="1" source="41" target="42" edge="1">
          <mxGeometry x="-23" y="135.5" width="100" height="100" as="geometry">
            <mxPoint x="-23" y="235.5" as="sourcePoint"/>
            <mxPoint x="77" y="135.5" as="targetPoint"/>
            <Array as="points">
              <mxPoint x="957" y="535.5"/>
            </Array>
          </mxGeometry>
        </mxCell>
        <mxCell id="83" value="" style="edgeStyle=elbowEdgeStyle;elbow=horizontal;strokeWidth=2;rounded=0" parent="1" source="41" target="43" edge="1">
          <mxGeometry x="-23" y="135.5" width="100" height="100" as="geometry">
            <mxPoint x="-23" y="235.5" as="sourcePoint"/>
            <mxPoint x="77" y="135.5" as="targetPoint"/>
            <Array as="points">
              <mxPoint x="957" y="585.5"/>
            </Array>
          </mxGeometry>
        </mxCell>
        <mxCell id="84" value="" style="edgeStyle=elbowEdgeStyle;elbow=horizontal;strokeWidth=2;rounded=0;entryX=0;entryY=0.5;entryDx=0;entryDy=0;" parent="1" source="44" target="45" edge="1">
          <mxGeometry x="-23" y="135.5" width="100" height="100" as="geometry">
            <mxPoint x="-23" y="235.5" as="sourcePoint"/>
            <mxPoint x="77" y="135.5" as="targetPoint"/>
            <Array as="points">
              <mxPoint x="1197" y="545.5"/>
            </Array>
          </mxGeometry>
        </mxCell>
        <mxCell id="85" value="" style="edgeStyle=elbowEdgeStyle;elbow=horizontal;strokeWidth=2;rounded=0" parent="1" source="44" target="46" edge="1">
          <mxGeometry x="-23" y="135.5" width="100" height="100" as="geometry">
            <mxPoint x="-23" y="235.5" as="sourcePoint"/>
            <mxPoint x="77" y="135.5" as="targetPoint"/>
            <Array as="points">
              <mxPoint x="1197" y="575.5"/>
            </Array>
          </mxGeometry>
        </mxCell>
        <mxCell id="86" value="" style="edgeStyle=elbowEdgeStyle;elbow=horizontal;strokeWidth=2;rounded=0" parent="1" source="44" target="47" edge="1">
          <mxGeometry x="-23" y="135.5" width="100" height="100" as="geometry">
            <mxPoint x="-23" y="235.5" as="sourcePoint"/>
            <mxPoint x="77" y="135.5" as="targetPoint"/>
            <Array as="points">
              <mxPoint x="1197" y="625.5"/>
            </Array>
          </mxGeometry>
        </mxCell>
        <mxCell id="87" value="" style="edgeStyle=elbowEdgeStyle;elbow=horizontal;strokeWidth=2;rounded=0" parent="1" source="48" target="49" edge="1">
          <mxGeometry x="-23" y="135.5" width="100" height="100" as="geometry">
            <mxPoint x="-23" y="235.5" as="sourcePoint"/>
            <mxPoint x="77" y="135.5" as="targetPoint"/>
            <Array as="points">
              <mxPoint x="1367" y="535.5"/>
            </Array>
          </mxGeometry>
        </mxCell>
        <mxCell id="88" value="" style="edgeStyle=elbowEdgeStyle;elbow=horizontal;strokeWidth=2;rounded=0" parent="1" source="48" target="50" edge="1">
          <mxGeometry x="-23" y="135.5" width="100" height="100" as="geometry">
            <mxPoint x="-23" y="235.5" as="sourcePoint"/>
            <mxPoint x="77" y="135.5" as="targetPoint"/>
            <Array as="points">
              <mxPoint x="1367" y="595.5"/>
            </Array>
          </mxGeometry>
        </mxCell>
        <mxCell id="89" value="" style="edgeStyle=elbowEdgeStyle;elbow=horizontal;strokeWidth=2;rounded=0" parent="1" source="48" target="51" edge="1">
          <mxGeometry x="-23" y="135.5" width="100" height="100" as="geometry">
            <mxPoint x="-23" y="235.5" as="sourcePoint"/>
            <mxPoint x="77" y="135.5" as="targetPoint"/>
            <Array as="points">
              <mxPoint x="1367" y="625.5"/>
            </Array>
          </mxGeometry>
        </mxCell>
        <mxCell id="90" value="" style="edgeStyle=elbowEdgeStyle;elbow=horizontal;strokeWidth=2;rounded=0" parent="1" source="52" target="53" edge="1">
          <mxGeometry x="-23" y="135.5" width="100" height="100" as="geometry">
            <mxPoint x="-23" y="235.5" as="sourcePoint"/>
            <mxPoint x="77" y="135.5" as="targetPoint"/>
            <Array as="points">
              <mxPoint x="1547" y="535.5"/>
            </Array>
          </mxGeometry>
        </mxCell>
        <mxCell id="91" value="" style="edgeStyle=elbowEdgeStyle;elbow=horizontal;strokeWidth=2;rounded=0" parent="1" source="52" target="54" edge="1">
          <mxGeometry x="-23" y="135.5" width="100" height="100" as="geometry">
            <mxPoint x="-23" y="235.5" as="sourcePoint"/>
            <mxPoint x="77" y="135.5" as="targetPoint"/>
            <Array as="points">
              <mxPoint x="1547" y="575.5"/>
            </Array>
          </mxGeometry>
        </mxCell>
        <mxCell id="92" value="" style="edgeStyle=elbowEdgeStyle;elbow=horizontal;strokeWidth=2;rounded=0" parent="1" source="52" target="55" edge="1">
          <mxGeometry x="-23" y="135.5" width="100" height="100" as="geometry">
            <mxPoint x="-23" y="235.5" as="sourcePoint"/>
            <mxPoint x="77" y="135.5" as="targetPoint"/>
            <Array as="points">
              <mxPoint x="1547" y="625.5"/>
            </Array>
          </mxGeometry>
        </mxCell>
        <mxCell id="100" value="" style="edgeStyle=elbowEdgeStyle;elbow=vertical;strokeWidth=2;rounded=0" parent="1" source="12" target="25" edge="1">
          <mxGeometry x="-23" y="135.5" width="100" height="100" as="geometry">
            <mxPoint x="-23" y="235.5" as="sourcePoint"/>
            <mxPoint x="77" y="135.5" as="targetPoint"/>
          </mxGeometry>
        </mxCell>
        <mxCell id="101" value="" style="edgeStyle=elbowEdgeStyle;elbow=vertical;strokeWidth=2;rounded=0" parent="1" source="12" target="29" edge="1">
          <mxGeometry x="-23" y="135.5" width="100" height="100" as="geometry">
            <mxPoint x="-23" y="235.5" as="sourcePoint"/>
            <mxPoint x="77" y="135.5" as="targetPoint"/>
          </mxGeometry>
        </mxCell>
        <mxCell id="102" value="" style="edgeStyle=elbowEdgeStyle;elbow=vertical;strokeWidth=2;rounded=0" parent="1" source="12" target="33" edge="1">
          <mxGeometry x="-23" y="135.5" width="100" height="100" as="geometry">
            <mxPoint x="-23" y="235.5" as="sourcePoint"/>
            <mxPoint x="77" y="135.5" as="targetPoint"/>
          </mxGeometry>
        </mxCell>
        <mxCell id="103" value="" style="edgeStyle=elbowEdgeStyle;elbow=vertical;strokeWidth=2;rounded=0" parent="1" source="10" target="41" edge="1">
          <mxGeometry x="-23" y="135.5" width="100" height="100" as="geometry">
            <mxPoint x="-23" y="235.5" as="sourcePoint"/>
            <mxPoint x="77" y="135.5" as="targetPoint"/>
          </mxGeometry>
        </mxCell>
        <mxCell id="104" value="" style="edgeStyle=elbowEdgeStyle;elbow=vertical;strokeWidth=2;rounded=0" parent="1" source="4" target="48" edge="1">
          <mxGeometry x="-23" y="135.5" width="100" height="100" as="geometry">
            <mxPoint x="-23" y="235.5" as="sourcePoint"/>
            <mxPoint x="77" y="135.5" as="targetPoint"/>
          </mxGeometry>
        </mxCell>
        <mxCell id="105" value="" style="edgeStyle=elbowEdgeStyle;elbow=vertical;strokeWidth=2;rounded=0" parent="1" source="4" target="44" edge="1">
          <mxGeometry x="-23" y="135.5" width="100" height="100" as="geometry">
            <mxPoint x="-23" y="235.5" as="sourcePoint"/>
            <mxPoint x="77" y="135.5" as="targetPoint"/>
          </mxGeometry>
        </mxCell>
        <mxCell id="106" value="" style="edgeStyle=elbowEdgeStyle;elbow=vertical;strokeWidth=2;rounded=0" parent="1" source="4" target="52" edge="1">
          <mxGeometry x="-23" y="135.5" width="100" height="100" as="geometry">
            <mxPoint x="-23" y="235.5" as="sourcePoint"/>
            <mxPoint x="77" y="135.5" as="targetPoint"/>
          </mxGeometry>
        </mxCell>
        <mxCell id="6_NMdj25JBLofWKGqe_U-128" value="" style="edgeStyle=elbowEdgeStyle;elbow=vertical;strokeWidth=2;rounded=0;" parent="1" edge="1">
          <mxGeometry x="357" y="235.5" width="100" height="100" as="geometry">
            <mxPoint x="1042" y="260" as="sourcePoint"/>
            <mxPoint x="1042" y="336" as="targetPoint"/>
          </mxGeometry>
        </mxCell>
        <mxCell id="6_NMdj25JBLofWKGqe_U-183" style="edgeStyle=orthogonalEdgeStyle;rounded=0;orthogonalLoop=1;jettySize=auto;html=1;exitX=0.5;exitY=1;exitDx=0;exitDy=0;entryX=0.5;entryY=0;entryDx=0;entryDy=0;strokeWidth=2;" parent="1" source="6_NMdj25JBLofWKGqe_U-130" target="6_NMdj25JBLofWKGqe_U-181" edge="1">
          <mxGeometry relative="1" as="geometry"/>
        </mxCell>
        <mxCell id="6_NMdj25JBLofWKGqe_U-184" style="edgeStyle=orthogonalEdgeStyle;rounded=0;orthogonalLoop=1;jettySize=auto;html=1;entryX=0.5;entryY=0;entryDx=0;entryDy=0;strokeWidth=2;" parent="1" source="6_NMdj25JBLofWKGqe_U-130" target="6_NMdj25JBLofWKGqe_U-182" edge="1">
          <mxGeometry relative="1" as="geometry"/>
        </mxCell>
        <mxCell id="6_NMdj25JBLofWKGqe_U-130" value="技术运营服务" style="rounded=1;fillColor=#23445D;gradientColor=none;strokeColor=none;fontColor=#FFFFFF;fontStyle=1;fontFamily=Tahoma;fontSize=14" parent="1" vertex="1">
          <mxGeometry x="1810.9999999999998" y="335.5" width="190" height="80" as="geometry"/>
        </mxCell>
        <mxCell id="6_NMdj25JBLofWKGqe_U-132" value="绩效系统" style="rounded=1;fillColor=#23445D;gradientColor=none;strokeColor=none;fontColor=#FFFFFF;fontStyle=1;fontFamily=Tahoma;fontSize=14" parent="1" vertex="1">
          <mxGeometry x="50" y="975.5" width="130" height="60" as="geometry"/>
        </mxCell>
        <mxCell id="6_NMdj25JBLofWKGqe_U-133" value="数据平台" style="rounded=1;fillColor=#23445D;gradientColor=none;strokeColor=none;fontColor=#FFFFFF;fontStyle=1;fontFamily=Tahoma;fontSize=14" parent="1" vertex="1">
          <mxGeometry x="417" y="810.5" width="130" height="60" as="geometry"/>
        </mxCell>
        <mxCell id="6_NMdj25JBLofWKGqe_U-135" value="" style="edgeStyle=elbowEdgeStyle;elbow=horizontal;strokeWidth=2;rounded=0;entryX=0;entryY=0.5;entryDx=0;entryDy=0;" parent="1" target="28" edge="1">
          <mxGeometry x="-23" y="135.5" width="100" height="100" as="geometry">
            <mxPoint x="397" y="490" as="sourcePoint"/>
            <mxPoint x="417" y="575.5" as="targetPoint"/>
            <Array as="points">
              <mxPoint x="397" y="535.5"/>
            </Array>
          </mxGeometry>
        </mxCell>
        <mxCell id="6_NMdj25JBLofWKGqe_U-138" value="业务服务" style="rounded=1;fillColor=#23445D;gradientColor=none;strokeColor=none;fontColor=#FFFFFF;fontStyle=1;fontFamily=Tahoma;fontSize=14" parent="1" vertex="1">
          <mxGeometry x="50" y="452" width="130" height="60" as="geometry"/>
        </mxCell>
        <mxCell id="6_NMdj25JBLofWKGqe_U-139" value="基础服务" style="rounded=1;fillColor=#23445D;gradientColor=none;strokeColor=none;fontColor=#FFFFFF;fontStyle=1;fontFamily=Tahoma;fontSize=14" parent="1" vertex="1">
          <mxGeometry x="230" y="452" width="130" height="60" as="geometry"/>
        </mxCell>
        <mxCell id="6_NMdj25JBLofWKGqe_U-140" value="" style="fillColor=#10739E;strokeColor=none;opacity=30;" parent="1" vertex="1">
          <mxGeometry x="221" y="536" width="153" height="305" as="geometry"/>
        </mxCell>
        <mxCell id="6_NMdj25JBLofWKGqe_U-146" value="Nexus私服" style="rounded=1;fillColor=#23445D;gradientColor=none;strokeColor=none;fontColor=#FFFFFF;fontStyle=1;fontFamily=Tahoma;fontSize=14" parent="1" vertex="1">
          <mxGeometry x="232" y="545.5" width="130" height="60" as="geometry"/>
        </mxCell>
        <mxCell id="6_NMdj25JBLofWKGqe_U-147" value="Gitlab" style="rounded=1;fillColor=#23445D;gradientColor=none;strokeColor=none;fontColor=#FFFFFF;fontStyle=1;fontFamily=Tahoma;fontSize=14" parent="1" vertex="1">
          <mxGeometry x="232.5" y="635.5" width="130" height="60" as="geometry"/>
        </mxCell>
        <mxCell id="6_NMdj25JBLofWKGqe_U-148" value="门锁管理" style="rounded=1;fillColor=#23445D;gradientColor=none;strokeColor=none;fontColor=#FFFFFF;fontStyle=1;fontFamily=Tahoma;fontSize=14" parent="1" vertex="1">
          <mxGeometry x="417" y="890" width="130" height="60" as="geometry"/>
        </mxCell>
        <mxCell id="6_NMdj25JBLofWKGqe_U-150" value="" style="edgeStyle=elbowEdgeStyle;elbow=horizontal;strokeWidth=2;rounded=0;" parent="1" edge="1">
          <mxGeometry x="-16" y="144.5" width="100" height="100" as="geometry">
            <mxPoint x="397" y="486" as="sourcePoint"/>
            <mxPoint x="420" y="919" as="targetPoint"/>
            <Array as="points">
              <mxPoint x="397" y="619"/>
              <mxPoint x="404" y="624.5"/>
            </Array>
          </mxGeometry>
        </mxCell>
        <mxCell id="6_NMdj25JBLofWKGqe_U-154" value="" style="edgeStyle=elbowEdgeStyle;elbow=horizontal;strokeWidth=2;rounded=0;entryX=0;entryY=0.5;entryDx=0;entryDy=0;" parent="1" target="19" edge="1">
          <mxGeometry x="-202" y="85.5" width="100" height="100" as="geometry">
            <mxPoint x="51" y="480" as="sourcePoint"/>
            <mxPoint x="9.5" y="848" as="targetPoint"/>
            <Array as="points">
              <mxPoint x="31" y="464.5"/>
              <mxPoint x="61" y="744.5"/>
              <mxPoint x="-8" y="424.5"/>
              <mxPoint x="23" y="744.5"/>
              <mxPoint x="23" y="615.5"/>
            </Array>
          </mxGeometry>
        </mxCell>
        <mxCell id="6_NMdj25JBLofWKGqe_U-156" value="" style="edgeStyle=elbowEdgeStyle;elbow=horizontal;strokeWidth=2;rounded=0;entryX=0;entryY=0.5;entryDx=0;entryDy=0;" parent="1" target="18" edge="1">
          <mxGeometry x="-202" y="129" width="100" height="100" as="geometry">
            <mxPoint x="40" y="480" as="sourcePoint"/>
            <mxPoint x="9.5" y="758" as="targetPoint"/>
            <Array as="points">
              <mxPoint x="31" y="778"/>
              <mxPoint x="31" y="508"/>
              <mxPoint x="61" y="788"/>
              <mxPoint x="-8" y="468"/>
              <mxPoint x="23" y="788"/>
              <mxPoint x="23" y="659"/>
            </Array>
          </mxGeometry>
        </mxCell>
        <mxCell id="6_NMdj25JBLofWKGqe_U-157" value="" style="edgeStyle=elbowEdgeStyle;elbow=horizontal;strokeWidth=2;rounded=0;entryX=0;entryY=0.5;entryDx=0;entryDy=0;" parent="1" target="6_NMdj25JBLofWKGqe_U-132" edge="1">
          <mxGeometry x="-202" y="129" width="100" height="100" as="geometry">
            <mxPoint x="40" y="480" as="sourcePoint"/>
            <mxPoint x="9.5" y="1023" as="targetPoint"/>
            <Array as="points">
              <mxPoint x="31" y="778"/>
              <mxPoint x="31" y="508"/>
              <mxPoint x="61" y="788"/>
              <mxPoint x="-8" y="468"/>
              <mxPoint x="23" y="788"/>
              <mxPoint x="23" y="659"/>
            </Array>
          </mxGeometry>
        </mxCell>
        <mxCell id="6_NMdj25JBLofWKGqe_U-158" value="" style="edgeStyle=elbowEdgeStyle;elbow=horizontal;strokeWidth=2;rounded=0;entryX=0;entryY=0.5;entryDx=0;entryDy=0;" parent="1" target="17" edge="1">
          <mxGeometry x="-202" y="128.5" width="100" height="100" as="geometry">
            <mxPoint x="31" y="480" as="sourcePoint"/>
            <mxPoint x="9.5" y="668" as="targetPoint"/>
            <Array as="points">
              <mxPoint x="31" y="480"/>
              <mxPoint x="31" y="480"/>
              <mxPoint x="31" y="777.5"/>
              <mxPoint x="31" y="507.5"/>
              <mxPoint x="61" y="787.5"/>
              <mxPoint x="-8" y="467.5"/>
              <mxPoint x="23" y="787.5"/>
              <mxPoint x="23" y="658.5"/>
            </Array>
          </mxGeometry>
        </mxCell>
        <mxCell id="6_NMdj25JBLofWKGqe_U-163" value="" style="edgeStyle=elbowEdgeStyle;elbow=horizontal;strokeWidth=2;rounded=0;entryX=0;entryY=0.5;entryDx=0;entryDy=0;" parent="1" target="16" edge="1">
          <mxGeometry x="-202" y="128.5" width="100" height="100" as="geometry">
            <mxPoint x="31" y="480" as="sourcePoint"/>
            <mxPoint x="9.5" y="578" as="targetPoint"/>
            <Array as="points">
              <mxPoint x="31" y="777.5"/>
              <mxPoint x="31" y="507.5"/>
              <mxPoint x="61" y="787.5"/>
              <mxPoint x="-8" y="467.5"/>
              <mxPoint x="23" y="787.5"/>
              <mxPoint x="23" y="658.5"/>
            </Array>
          </mxGeometry>
        </mxCell>
        <mxCell id="6_NMdj25JBLofWKGqe_U-168" value="" style="edgeStyle=elbowEdgeStyle;elbow=horizontal;strokeWidth=2;rounded=0;entryX=0;entryY=0.5;entryDx=0;entryDy=0;" parent="1" target="6_NMdj25JBLofWKGqe_U-147" edge="1">
          <mxGeometry x="-20.5" y="130.5" width="100" height="100" as="geometry">
            <mxPoint x="231.5" y="482" as="sourcePoint"/>
            <mxPoint x="232" y="672" as="targetPoint"/>
            <Array as="points">
              <mxPoint x="212.5" y="779.5"/>
              <mxPoint x="212.5" y="509.5"/>
              <mxPoint x="242.5" y="789.5"/>
              <mxPoint x="173.5" y="469.5"/>
              <mxPoint x="204.5" y="789.5"/>
              <mxPoint x="204.5" y="660.5"/>
            </Array>
          </mxGeometry>
        </mxCell>
        <mxCell id="6_NMdj25JBLofWKGqe_U-169" value="" style="edgeStyle=elbowEdgeStyle;elbow=horizontal;strokeWidth=2;rounded=0;entryX=0;entryY=0.5;entryDx=0;entryDy=0;" parent="1" target="6_NMdj25JBLofWKGqe_U-146" edge="1">
          <mxGeometry x="-20.5" y="130.5" width="100" height="100" as="geometry">
            <mxPoint x="212.5" y="482" as="sourcePoint"/>
            <mxPoint x="240" y="590" as="targetPoint"/>
            <Array as="points">
              <mxPoint x="212.5" y="779.5"/>
              <mxPoint x="212.5" y="509.5"/>
              <mxPoint x="242.5" y="789.5"/>
              <mxPoint x="173.5" y="469.5"/>
              <mxPoint x="204.5" y="789.5"/>
              <mxPoint x="204.5" y="660.5"/>
            </Array>
          </mxGeometry>
        </mxCell>
        <mxCell id="6_NMdj25JBLofWKGqe_U-171" value="财务系统" style="rounded=1;fillColor=#23445D;gradientColor=none;strokeColor=none;fontColor=#FFFFFF;fontStyle=1;fontFamily=Tahoma;fontSize=14" parent="1" vertex="1">
          <mxGeometry x="50" y="1061" width="130" height="60" as="geometry"/>
        </mxCell>
        <mxCell id="6_NMdj25JBLofWKGqe_U-172" value="" style="edgeStyle=elbowEdgeStyle;elbow=horizontal;strokeWidth=2;rounded=0;entryX=0;entryY=0.5;entryDx=0;entryDy=0;" parent="1" edge="1">
          <mxGeometry x="-202" y="214" width="100" height="100" as="geometry">
            <mxPoint x="40" y="480" as="sourcePoint"/>
            <mxPoint x="50" y="1091" as="targetPoint"/>
            <Array as="points">
              <mxPoint x="31" y="863"/>
              <mxPoint x="31" y="593"/>
              <mxPoint x="61" y="873"/>
              <mxPoint x="-8" y="553"/>
              <mxPoint x="23" y="873"/>
              <mxPoint x="23" y="744"/>
            </Array>
          </mxGeometry>
        </mxCell>
        <mxCell id="6_NMdj25JBLofWKGqe_U-173" value="任务调度中心" style="rounded=1;fillColor=#23445D;gradientColor=none;strokeColor=none;fontColor=#FFFFFF;fontStyle=1;fontFamily=Tahoma;fontSize=14" parent="1" vertex="1">
          <mxGeometry x="770" y="723" width="130" height="60" as="geometry"/>
        </mxCell>
        <mxCell id="6_NMdj25JBLofWKGqe_U-174" value="" style="edgeStyle=elbowEdgeStyle;elbow=horizontal;strokeWidth=2;rounded=0;exitX=0;exitY=0.5;exitDx=0;exitDy=0;" parent="1" source="33" edge="1">
          <mxGeometry x="-23" y="225.5" width="100" height="100" as="geometry">
            <mxPoint x="767" y="575.5" as="sourcePoint"/>
            <mxPoint x="770" y="756" as="targetPoint"/>
            <Array as="points">
              <mxPoint x="747" y="665.5"/>
            </Array>
          </mxGeometry>
        </mxCell>
        <mxCell id="6_NMdj25JBLofWKGqe_U-181" value="业务服务" style="rounded=1;fillColor=#23445D;gradientColor=none;strokeColor=none;fontColor=#FFFFFF;fontStyle=1;fontFamily=Tahoma;fontSize=14" parent="1" vertex="1">
          <mxGeometry x="1750" y="455.5" width="130" height="60" as="geometry"/>
        </mxCell>
        <mxCell id="6_NMdj25JBLofWKGqe_U-182" value="基础服务" style="rounded=1;fillColor=#23445D;gradientColor=none;strokeColor=none;fontColor=#FFFFFF;fontStyle=1;fontFamily=Tahoma;fontSize=14" parent="1" vertex="1">
          <mxGeometry x="1930" y="455.5" width="130" height="60" as="geometry"/>
        </mxCell>
        <mxCell id="6_NMdj25JBLofWKGqe_U-214" value="" style="edgeStyle=orthogonalEdgeStyle;rounded=0;orthogonalLoop=1;jettySize=auto;html=1;strokeWidth=2;" parent="1" source="6_NMdj25JBLofWKGqe_U-185" target="6_NMdj25JBLofWKGqe_U-213" edge="1">
          <mxGeometry relative="1" as="geometry"/>
        </mxCell>
        <mxCell id="6_NMdj25JBLofWKGqe_U-185" value="运维服务" style="rounded=1;fillColor=#23445D;gradientColor=none;strokeColor=none;fontColor=#FFFFFF;fontStyle=1;fontFamily=Tahoma;fontSize=14" parent="1" vertex="1">
          <mxGeometry x="1930" y="545.5" width="130" height="60" as="geometry"/>
        </mxCell>
        <mxCell id="6_NMdj25JBLofWKGqe_U-216" value="" style="edgeStyle=orthogonalEdgeStyle;rounded=0;orthogonalLoop=1;jettySize=auto;html=1;strokeWidth=2;" parent="1" source="6_NMdj25JBLofWKGqe_U-213" target="6_NMdj25JBLofWKGqe_U-215" edge="1">
          <mxGeometry relative="1" as="geometry"/>
        </mxCell>
        <mxCell id="6_NMdj25JBLofWKGqe_U-213" value="办公环境支撑" style="rounded=1;fillColor=#23445D;gradientColor=none;strokeColor=none;fontColor=#FFFFFF;fontStyle=1;fontFamily=Tahoma;fontSize=14" parent="1" vertex="1">
          <mxGeometry x="1931" y="633" width="130" height="60" as="geometry"/>
        </mxCell>
        <mxCell id="6_NMdj25JBLofWKGqe_U-215" value="域名、网站等&#xa;企业电子产权管理" style="rounded=1;fillColor=#23445D;gradientColor=none;strokeColor=none;fontColor=#FFFFFF;fontStyle=1;fontFamily=Tahoma;fontSize=14" parent="1" vertex="1">
          <mxGeometry x="1931" y="727" width="130" height="60" as="geometry"/>
        </mxCell>
        <mxCell id="6_NMdj25JBLofWKGqe_U-205" value="" style="edgeStyle=orthogonalEdgeStyle;rounded=0;orthogonalLoop=1;jettySize=auto;html=1;strokeWidth=2;" parent="1" source="6_NMdj25JBLofWKGqe_U-186" target="6_NMdj25JBLofWKGqe_U-187" edge="1">
          <mxGeometry relative="1" as="geometry"/>
        </mxCell>
        <mxCell id="6_NMdj25JBLofWKGqe_U-186" value="云服务管理" style="rounded=1;fillColor=#23445D;gradientColor=none;strokeColor=none;fontColor=#FFFFFF;fontStyle=1;fontFamily=Tahoma;fontSize=14" parent="1" vertex="1">
          <mxGeometry x="1931" y="814.5" width="130" height="60" as="geometry"/>
        </mxCell>
        <mxCell id="6_NMdj25JBLofWKGqe_U-206" value="" style="edgeStyle=orthogonalEdgeStyle;rounded=0;orthogonalLoop=1;jettySize=auto;html=1;strokeWidth=2;" parent="1" source="6_NMdj25JBLofWKGqe_U-187" target="6_NMdj25JBLofWKGqe_U-188" edge="1">
          <mxGeometry relative="1" as="geometry"/>
        </mxCell>
        <mxCell id="6_NMdj25JBLofWKGqe_U-187" value="服务器、存储、网络&#xa;中间件服务等" style="rounded=1;fillColor=#23445D;gradientColor=none;strokeColor=none;fontColor=#FFFFFF;fontStyle=1;fontFamily=Tahoma;fontSize=14" parent="1" vertex="1">
          <mxGeometry x="1930" y="905.5000000000001" width="130" height="60" as="geometry"/>
        </mxCell>
        <mxCell id="6_NMdj25JBLofWKGqe_U-188" value="   安全、监控、&#xa;灾备、恢复" style="rounded=1;fillColor=#23445D;gradientColor=none;strokeColor=none;fontColor=#FFFFFF;fontStyle=1;fontFamily=Tahoma;fontSize=14" parent="1" vertex="1">
          <mxGeometry x="1930" y="995.5000000000001" width="130" height="60" as="geometry"/>
        </mxCell>
        <mxCell id="6_NMdj25JBLofWKGqe_U-209" value="" style="edgeStyle=orthogonalEdgeStyle;rounded=0;orthogonalLoop=1;jettySize=auto;html=1;strokeWidth=2;" parent="1" source="6_NMdj25JBLofWKGqe_U-189" target="6_NMdj25JBLofWKGqe_U-208" edge="1">
          <mxGeometry relative="1" as="geometry"/>
        </mxCell>
        <mxCell id="6_NMdj25JBLofWKGqe_U-189" value="外商接洽" style="rounded=1;fillColor=#23445D;gradientColor=none;strokeColor=none;fontColor=#FFFFFF;fontStyle=1;fontFamily=Tahoma;fontSize=14" parent="1" vertex="1">
          <mxGeometry x="1931" y="1080" width="130" height="60" as="geometry"/>
        </mxCell>
        <mxCell id="6_NMdj25JBLofWKGqe_U-190" value="" style="edgeStyle=elbowEdgeStyle;elbow=horizontal;strokeWidth=2;rounded=0;entryX=0;entryY=0.5;entryDx=0;entryDy=0;exitX=0;exitY=0.5;exitDx=0;exitDy=0;" parent="1" source="6_NMdj25JBLofWKGqe_U-182" target="6_NMdj25JBLofWKGqe_U-189" edge="1">
          <mxGeometry x="341" y="336.5" width="100" height="100" as="geometry">
            <mxPoint x="1931" y="686.5" as="sourcePoint"/>
            <mxPoint x="1931" y="1226.5" as="targetPoint"/>
            <Array as="points">
              <mxPoint x="1910" y="910"/>
              <mxPoint x="1911" y="966.5"/>
            </Array>
          </mxGeometry>
        </mxCell>
        <mxCell id="6_NMdj25JBLofWKGqe_U-197" value="" style="edgeStyle=orthogonalEdgeStyle;rounded=0;orthogonalLoop=1;jettySize=auto;html=1;strokeWidth=2;" parent="1" source="6_NMdj25JBLofWKGqe_U-191" target="6_NMdj25JBLofWKGqe_U-192" edge="1">
          <mxGeometry relative="1" as="geometry"/>
        </mxCell>
        <mxCell id="6_NMdj25JBLofWKGqe_U-191" value="智能办公" style="rounded=1;fillColor=#23445D;gradientColor=none;strokeColor=none;fontColor=#FFFFFF;fontStyle=1;fontFamily=Tahoma;fontSize=14" parent="1" vertex="1">
          <mxGeometry x="1752" y="544.5" width="130" height="60" as="geometry"/>
        </mxCell>
        <mxCell id="6_NMdj25JBLofWKGqe_U-192" value="会议室、云打印、门锁" style="rounded=1;fillColor=#23445D;gradientColor=none;strokeColor=none;fontColor=#FFFFFF;fontStyle=1;fontFamily=Tahoma;fontSize=14" parent="1" vertex="1">
          <mxGeometry x="1742" y="633" width="150" height="65" as="geometry"/>
        </mxCell>
        <mxCell id="6_NMdj25JBLofWKGqe_U-203" value="" style="edgeStyle=orthogonalEdgeStyle;rounded=0;orthogonalLoop=1;jettySize=auto;html=1;strokeWidth=2;" parent="1" source="6_NMdj25JBLofWKGqe_U-193" target="6_NMdj25JBLofWKGqe_U-194" edge="1">
          <mxGeometry relative="1" as="geometry"/>
        </mxCell>
        <mxCell id="6_NMdj25JBLofWKGqe_U-193" value="IT与运维服务" style="rounded=1;fillColor=#23445D;gradientColor=none;strokeColor=none;fontColor=#FFFFFF;fontStyle=1;fontFamily=Tahoma;fontSize=14" parent="1" vertex="1">
          <mxGeometry x="1752" y="727.0000000000001" width="130" height="60" as="geometry"/>
        </mxCell>
        <mxCell id="6_NMdj25JBLofWKGqe_U-194" value="软硬件、网络等" style="rounded=1;fillColor=#23445D;gradientColor=none;strokeColor=none;fontColor=#FFFFFF;fontStyle=1;fontFamily=Tahoma;fontSize=14" parent="1" vertex="1">
          <mxGeometry x="1752" y="816.5000000000001" width="130" height="60" as="geometry"/>
        </mxCell>
        <mxCell id="6_NMdj25JBLofWKGqe_U-196" value="" style="edgeStyle=elbowEdgeStyle;elbow=horizontal;strokeWidth=2;rounded=0;entryX=0;entryY=0.5;entryDx=0;entryDy=0;" parent="1" target="6_NMdj25JBLofWKGqe_U-193" edge="1">
          <mxGeometry x="160" y="135.5" width="100" height="100" as="geometry">
            <mxPoint x="1750" y="485.5" as="sourcePoint"/>
            <mxPoint x="1750" y="1025.5" as="targetPoint"/>
            <Array as="points">
              <mxPoint x="1730" y="765.5"/>
            </Array>
          </mxGeometry>
        </mxCell>
        <mxCell id="6_NMdj25JBLofWKGqe_U-202" value="" style="edgeStyle=elbowEdgeStyle;elbow=horizontal;strokeWidth=2;rounded=0;entryX=0;entryY=0.5;entryDx=0;entryDy=0;" parent="1" target="6_NMdj25JBLofWKGqe_U-191" edge="1">
          <mxGeometry x="163" y="135.5" width="100" height="100" as="geometry">
            <mxPoint x="1753" y="485.5" as="sourcePoint"/>
            <mxPoint x="1753" y="1025.5" as="targetPoint"/>
            <Array as="points">
              <mxPoint x="1730" y="530"/>
            </Array>
          </mxGeometry>
        </mxCell>
        <mxCell id="6_NMdj25JBLofWKGqe_U-208" value="软硬件服务商" style="rounded=1;fillColor=#23445D;gradientColor=none;strokeColor=none;fontColor=#FFFFFF;fontStyle=1;fontFamily=Tahoma;fontSize=14" parent="1" vertex="1">
          <mxGeometry x="1931" y="1164.5" width="130" height="60" as="geometry"/>
        </mxCell>
        <mxCell id="6_NMdj25JBLofWKGqe_U-210" value="" style="edgeStyle=elbowEdgeStyle;elbow=horizontal;strokeWidth=2;rounded=0;entryX=0;entryY=0.5;entryDx=0;entryDy=0;" parent="1" target="6_NMdj25JBLofWKGqe_U-185" edge="1">
          <mxGeometry x="350" y="-92" width="100" height="100" as="geometry">
            <mxPoint x="1930" y="486" as="sourcePoint"/>
            <mxPoint x="1940" y="708.5" as="targetPoint"/>
            <Array as="points">
              <mxPoint x="1910" y="530"/>
              <mxPoint x="1920" y="538"/>
            </Array>
          </mxGeometry>
        </mxCell>
        <mxCell id="6_NMdj25JBLofWKGqe_U-211" value="" style="edgeStyle=elbowEdgeStyle;elbow=horizontal;strokeWidth=2;rounded=0;entryX=0;entryY=0.5;entryDx=0;entryDy=0;exitX=0;exitY=0.5;exitDx=0;exitDy=0;" parent="1" source="6_NMdj25JBLofWKGqe_U-182" target="6_NMdj25JBLofWKGqe_U-186" edge="1">
          <mxGeometry x="340" y="-129" width="100" height="100" as="geometry">
            <mxPoint x="1930" y="490" as="sourcePoint"/>
            <mxPoint x="1930" y="671.5" as="targetPoint"/>
            <Array as="points">
              <mxPoint x="1910" y="501"/>
            </Array>
          </mxGeometry>
        </mxCell>
        <mxCell id="6_NMdj25JBLofWKGqe_U-217" value="……" style="rounded=1;fillColor=#23445D;gradientColor=none;strokeColor=none;fontColor=#FFFFFF;fontStyle=1;fontFamily=Tahoma;fontSize=14" parent="1" vertex="1">
          <mxGeometry x="1752" y="905.5000000000001" width="130" height="60" as="geometry"/>
        </mxCell>
        <mxCell id="6_NMdj25JBLofWKGqe_U-218" value="" style="edgeStyle=elbowEdgeStyle;elbow=horizontal;strokeWidth=2;rounded=0;entryX=0;entryY=0.5;entryDx=0;entryDy=0;exitX=0;exitY=0.5;exitDx=0;exitDy=0;" parent="1" source="6_NMdj25JBLofWKGqe_U-181" edge="1">
          <mxGeometry x="161" y="315.5" width="100" height="100" as="geometry">
            <mxPoint x="1751" y="665.5" as="sourcePoint"/>
            <mxPoint x="1753" y="937" as="targetPoint"/>
            <Array as="points">
              <mxPoint x="1730" y="800"/>
              <mxPoint x="1731" y="945.5"/>
            </Array>
          </mxGeometry>
        </mxCell>
        <mxCell id="Kw0e3bhkaNgVlWIhVy-k-124" value="&amp;nbsp; &amp;nbsp;" style="text;html=1;resizable=0;points=[];autosize=1;align=left;verticalAlign=top;spacingTop=-4;" parent="1" vertex="1">
          <mxGeometry x="647" y="-86" width="30" height="20" as="geometry"/>
        </mxCell>
        <mxCell id="Kw0e3bhkaNgVlWIhVy-k-125" value="&amp;nbsp; &amp;nbsp;" style="text;html=1;resizable=0;points=[];autosize=1;align=left;verticalAlign=top;spacingTop=-4;" parent="1" vertex="1">
          <mxGeometry x="-175" y="140.5" width="30" height="20" as="geometry"/>
        </mxCell>
        <mxCell id="Kw0e3bhkaNgVlWIhVy-k-130" value="" style="edgeStyle=elbowEdgeStyle;elbow=vertical;strokeWidth=2;rounded=0" parent="1" edge="1">
          <mxGeometry x="789" y="216.5" width="100" height="100" as="geometry">
            <mxPoint x="1042" y="180" as="sourcePoint"/>
            <mxPoint x="1909" y="337" as="targetPoint"/>
          </mxGeometry>
        </mxCell>
        <mxCell id="Kw0e3bhkaNgVlWIhVy-k-132" value="权限管理中心" style="rounded=1;fillColor=#23445D;gradientColor=none;strokeColor=none;fontColor=#FFFFFF;fontStyle=1;fontFamily=Tahoma;fontSize=14" parent="1" vertex="1">
          <mxGeometry x="231" y="725.5" width="130" height="60" as="geometry"/>
        </mxCell>
        <mxCell id="Kw0e3bhkaNgVlWIhVy-k-133" value="" style="edgeStyle=elbowEdgeStyle;elbow=horizontal;strokeWidth=2;rounded=0;entryX=0;entryY=0.5;entryDx=0;entryDy=0;" parent="1" edge="1">
          <mxGeometry x="-20.5" y="224" width="100" height="100" as="geometry">
            <mxPoint x="231.5" y="575.5" as="sourcePoint"/>
            <mxPoint x="232.5" y="759" as="targetPoint"/>
            <Array as="points">
              <mxPoint x="212.5" y="873"/>
              <mxPoint x="212.5" y="603"/>
              <mxPoint x="242.5" y="883"/>
              <mxPoint x="173.5" y="563"/>
              <mxPoint x="204.5" y="883"/>
              <mxPoint x="204.5" y="754"/>
            </Array>
          </mxGeometry>
        </mxCell>
        <mxCell id="7wH9q9egIVaxz0VAe03Z-245" value="&amp;nbsp; &amp;nbsp;" style="text;html=1;resizable=0;points=[];autosize=1;align=left;verticalAlign=top;spacingTop=-4;fontColor=#000000;" parent="1" vertex="1">
          <mxGeometry x="976" y="3035" width="30" height="20" as="geometry"/>
        </mxCell>
        <mxCell id="7wH9q9egIVaxz0VAe03Z-249" value="&amp;nbsp; &amp;nbsp; &amp;nbsp;&amp;nbsp;" style="text;html=1;resizable=0;points=[];autosize=1;align=left;verticalAlign=top;spacingTop=-4;" parent="1" vertex="1">
          <mxGeometry x="2195.5" y="767.5" width="40" height="20" as="geometry"/>
        </mxCell>
      </root>
    </mxGraphModel>
  </diagram>
</mxfile>
